<svg width="239" height="123" viewBox="0 0 239 123" fill="none" xmlns="http://www.w3.org/2000/svg">
<path d="M10.936 36.68H28.696V29.096H10.936V36.68ZM19.72 22.664L23.848 31.928L23.128 34.664L26.68 41H38.68L19.72 5L0.76 41H12.76L16.408 34.328L15.592 31.928L19.72 22.664ZM41.5731 7.4V29.96C41.5731 32.36 41.9571 34.392 42.7251 36.056C43.5251 37.688 44.6131 39.016 45.9891 40.04C47.3651 41.032 48.9331 41.752 50.6931 42.2C52.4851 42.68 54.3731 42.92 56.3571 42.92C58.3411 42.92 60.2131 42.68 61.9731 42.2C63.7651 41.752 65.3491 41.032 66.7251 40.04C68.1011 39.016 69.1731 37.688 69.9411 36.056C70.7411 34.392 71.1411 32.36 71.1411 29.96V7.4H60.5811V29C60.5811 30.344 60.2291 31.448 59.5251 32.312C58.8531 33.144 57.7971 33.56 56.3571 33.56C54.9171 33.56 53.8451 33.144 53.1411 32.312C52.4691 31.448 52.1331 30.344 52.1331 29V7.4H41.5731ZM87.3216 24.2C87.3216 22.472 87.7056 21.032 88.4736 19.88C89.2736 18.696 90.3136 17.816 91.5936 17.24C92.9056 16.664 94.3456 16.376 95.9136 16.376C97.5136 16.376 98.8896 16.584 100.042 17C101.194 17.384 102.202 17.896 103.066 18.536C103.962 19.176 104.762 19.832 105.466 20.504V9.656C104.154 8.728 102.714 7.96 101.146 7.352C99.6096 6.744 97.6096 6.44 95.1456 6.44C92.2336 6.44 89.5776 6.856 87.1776 7.688C84.7776 8.52 82.7296 9.72 81.0336 11.288C79.3376 12.856 78.0256 14.728 77.0976 16.904C76.1696 19.08 75.7056 21.512 75.7056 24.2C75.7056 26.888 76.1696 29.32 77.0976 31.496C78.0256 33.672 79.3376 35.544 81.0336 37.112C82.7296 38.68 84.7776 39.88 87.1776 40.712C89.5776 41.544 92.2336 41.96 95.1456 41.96C97.6096 41.96 99.6096 41.64 101.146 41C102.714 40.392 104.154 39.64 105.466 38.744V27.896C104.762 28.568 103.962 29.224 103.066 29.864C102.202 30.472 101.194 30.984 100.042 31.4C98.8896 31.816 97.5136 32.024 95.9136 32.024C94.3456 32.024 92.9056 31.736 91.5936 31.16C90.3136 30.584 89.2736 29.72 88.4736 28.568C87.7056 27.384 87.3216 25.928 87.3216 24.2Z" fill="#783B3B"/>
<path d="M163.727 76.0909V111H154.25V76.0909H163.727ZM202.037 93.5455C202.037 97.4318 201.281 100.71 199.77 103.381C198.259 106.04 196.219 108.057 193.651 109.432C191.082 110.795 188.219 111.477 185.06 111.477C181.878 111.477 179.003 110.79 176.435 109.415C173.878 108.028 171.844 106.006 170.332 103.347C168.832 100.676 168.082 97.4091 168.082 93.5455C168.082 89.6591 168.832 86.3864 170.332 83.7273C171.844 81.0568 173.878 79.0398 176.435 77.6761C179.003 76.3011 181.878 75.6136 185.06 75.6136C188.219 75.6136 191.082 76.3011 193.651 77.6761C196.219 79.0398 198.259 81.0568 199.77 83.7273C201.281 86.3864 202.037 89.6591 202.037 93.5455ZM192.287 93.5455C192.287 91.4545 192.009 89.6932 191.452 88.2614C190.906 86.8182 190.094 85.7273 189.014 84.9886C187.946 84.2386 186.628 83.8636 185.06 83.8636C183.491 83.8636 182.168 84.2386 181.088 84.9886C180.02 85.7273 179.207 86.8182 178.651 88.2614C178.105 89.6932 177.832 91.4545 177.832 93.5455C177.832 95.6364 178.105 97.4034 178.651 98.8466C179.207 100.278 180.02 101.369 181.088 102.119C182.168 102.858 183.491 103.227 185.06 103.227C186.628 103.227 187.946 102.858 189.014 102.119C190.094 101.369 190.906 100.278 191.452 98.8466C192.009 97.4034 192.287 95.6364 192.287 93.5455ZM236.626 76.0909V111H228.717L216.104 92.6591H215.899V111H206.422V76.0909H214.467L226.876 94.3636H227.149V76.0909H236.626Z" fill="#783B3B"/>
<rect x="129.148" y="17" width="51.1176" height="23.2353" rx="1" transform="rotate(32.2437 129.148 17)" fill="#783B3B"/>
<rect x="135.044" y="20.719" width="2.32353" height="23.2353" transform="rotate(32.2437 135.044 20.719)" fill="#EBAE13"/>
<rect x="164.522" y="39.3138" width="2.32353" height="23.2353" transform="rotate(32.2437 164.522 39.3138)" fill="#EBAE13"/>
<rect x="144.87" y="26.9172" width="13.9412" height="23.2353" transform="rotate(32.2437 144.87 26.9172)" fill="#EBAE13"/>
<rect x="134.439" y="47.809" width="9.29412" height="48.7941" transform="rotate(32.2437 134.439 47.809)" fill="#783B3B"/>
<mask id="path-8-inside-1_120_31" fill="white">
<rect x="106.441" y="87.8387" width="13.9412" height="6.97059" rx="0.5" transform="rotate(32.2437 106.441 87.8387)"/>
</mask>
<rect x="106.441" y="87.8387" width="13.9412" height="6.97059" rx="0.5" transform="rotate(32.2437 106.441 87.8387)" fill="#EBAE13" stroke="#783B3B" stroke-width="2" mask="url(#path-8-inside-1_120_31)"/>
</svg>
